<svg id="visual" viewBox="0 0 900 600" width="900" height="600" xmlns="http://www.w3.org/2000/svg" xmlns:xlink="http://www.w3.org/1999/xlink" version="1.1"><rect x="0" y="0" width="900" height="600" fill="#F7F7E8"></rect><defs><linearGradient id="grad1_0" x1="33.3%" y1="100%" x2="100%" y2="0%"><stop offset="20%" stop-color="#f7f7e8" stop-opacity="1"></stop><stop offset="80%" stop-color="#f7f7e8" stop-opacity="1"></stop></linearGradient></defs><defs><linearGradient id="grad2_0" x1="0%" y1="100%" x2="66.7%" y2="0%"><stop offset="20%" stop-color="#f7f7e8" stop-opacity="1"></stop><stop offset="80%" stop-color="#f7f7e8" stop-opacity="1"></stop></linearGradient></defs><g transform="translate(900, 600)"><path d="M-378.6 0C-340.8 -29.9 -303 -59.7 -292 -94.9C-280.9 -130 -296.6 -170.4 -291.2 -211.6C-285.9 -252.8 -259.4 -294.7 -222.5 -306.3C-185.6 -317.9 -138.3 -299.2 -99.5 -306.2C-60.7 -313.2 -30.3 -345.9 0 -378.6L0 0Z" fill="#FFC300"></path></g><g transform="translate(0, 0)"><path d="M378.6 0C359.6 35.7 340.7 71.3 327.2 106.3C313.6 141.3 305.5 175.5 290.4 211C275.4 246.5 253.5 283.3 222.5 306.3C191.6 329.2 151.7 338.3 113.1 348.1C74.5 357.8 37.3 368.2 0 378.6L0 0Z" fill="#FFC300"></path></g></svg>