<svg version="1.2" xmlns="http://www.w3.org/2000/svg" viewBox="0 0 1200 800" width="1200px" height="800px" transform="rotate(0) scale(1, 1)">
	<style>.s0 { fill: #9fb072; }</style>
	<g>
		<g id="Graphic_Element">
			<path class="s0" d="m1055.09 439.16c7.1-5.14 8.58-11.01 5.22-19.23-0.53-4.26-2.51-7.87-4.99-11.25-1.24-1.75-2.96-2.8-4.93-3.53-2.36-1.48-5.04-1.83-7.73-2.16-1.02-0.62-2.65 0.47-3.37-1.2 2.26-2.03 4.86-3.71 6.13-6.6q0.21-0.23 0.3-0.48 0.27-0.41 0.53-0.82c-0.64-3.25-0.97-6.49 0.73-9.58 0 0-0.19-0.1-0.29-0.16-0.91-0.49 0.07-1.99-1.22-2.28-0.68-0.81-0.73-1.8-0.79-2.79q0.04-0.72 0.09-1.44c-0.88-2.5-1.76-5-3.53-7.05q-0.01-1.02-0.02-2.05 0.37-0.31 0.71-0.65c1.66-1.83 2.8-3.92 2.98-6.44-0.01-1.06-0.01-1.89-0.07-2.54 0.56-3.59-0.26-7.04-1.45-10.46q0.11-1.06 0.1-2.15c-1.15-5.56-3.64-10.15-9.21-12.45q-0.45-0.07-0.93-0.08c-1.71-1.22-3.59-2.1-5.67-2.55q-0.08-0.27-0.13-0.58c-0.04-0.26-0.52-0.43-0.81-0.6-2.19-1.17-4.62-1.59-7.03-2.06-7.02-1.36-14.15-1.8-21.25-2.47-1.69-0.16-3.25 0.06-4.75 0.84-6.06 3.17-12.58 3.25-19.17 2.78-9.9-0.71-19.79-1.66-29.73-1.87-2.77 0.02-5.56 0.35-8.32-0.26-0.77-0.15-1.52-0.15-2.28 0.1q-0.03 0.02-0.07 0.04c-2.36-0.24-4.73-0.48-7.1-0.64q-2.3-0.15-4.59-0.29c-2.2-0.39-4.55-0.16-6.74-0.64-1.55-0.34-3.06-0.4-4.53-0.09q-17.4-1.1-34.79-2.2-0.62-0.31-1.24-0.28c-1.76-0.43-3.53-0.91-5.3 0.24q-0.32-0.07-0.6 0.11c-1.49-1.06-3.09-1.06-4.7-0.93-1.11-0.14-2.16-0.44-3.24-0.66-11.79-2.12-23.75-2.4-35.67-2.96-6.9-0.33-13.79-0.76-20.71-0.92-17.31-0.38-34.58-2.3-51.93-1.92-4.04 0.27-8.09-0.16-12.13 0.23q-3.13-0.01-6.26 0.07c-0.46-0.07-0.91-0.2-1.37-0.21q-0.62-0.02-1.23-0.04c-4.3-0.71-8.67-1.17-12.95-0.54q-0.76 0.11-1.52 0.15-8-0.22-15.99-0.44-1.44-0.61-3.13-0.53c-12.3 0.49-24.55-0.88-36.84-0.76q-1.9 0.03-3.81 0.08c-2.7-0.11-5.41-0.89-8.09-0.15-0.42-0.04-0.84 0.01-1.26-0.05-0.17-0.29-0.34-0.77-0.51-0.77h-57.1c-1.15 1-2.43 0.1-3.64 0.26-0.45 0.06-0.96-0.03-1.19 0.3-0.52 0.01-1.03-0.01-1.55 0.06-3.62 0.77-7.33-0.02-10.97 0.55q-0.07 0.03-0.14 0.05-1.91 0.06-3.81 0.44-0.52 0.03-1.02 0.14-3.35 0-6.7 0.01c-0.91-0.21-1.88-0.12-2.82-0.17q-1.32-0.05-2.65-0.01-1.15-0.15-2.3-0.21-1.72-0.08-3.44-0.07-0.16-0.02-0.33-0.06c-0.94-0.21-1.87-0.25-2.81 0.01q-0.14 0.06-0.29 0.12c-2.71 0.07-5.42 0.18-8.11 0.11-4.57-0.12-9.18-0.76-13.75-0.6-2.36-0.07-4.72-0.04-7.09-0.01-1.15-0.05-2.31-0.07-3.45 0.02q-1.56 0.01-3.12-0.03-0.61-0.02-1.23 0c-8.41 0.04-16.73 1.38-25.14 1.63-5.92 0.18-11.86 0.76-17.78 1.35q-1.24 0.12-2.45 0.41-6.78 0.75-13.48 2.08c-0.45-0.2-0.95-0.33-1.54-0.32q-0.61 0.01-1.21 0.16c-7.7 0.8-15.32 2.42-23.12 2.38-5.87 0.06-11.64 1.23-17.47 1.77-14.46 1.34-28.87 3.16-43.32 4.68-10.6 1.12-21.27 1.31-31.87 2.5-5.79 0.66-11.7 1.28-17.45 1.37q-7.84 0.1-15.68 0.55c-0.91 0.22-1.8 0.45-2.74 0.52-8.48 0.66-16.98 0.93-25.46 1.41-5.44 0.31-10.93 0.48-16.32 1.53-1.18 0.01-2.25 0.25-3.25 0.63-3.2-0.02-6.37 0.4-9.53 0.9-3.31 0.54-6.75-1.09-9.99 0.61-0.46 0.01-1.11-0.17-1.35 0.06-3 2.97-6.98 2.95-10.73 3.71-1.5 0.31-2.52 1.59-2.65 3.29q-0.38 0.7-0.75 1.4c-0.92 3.34-0.73 6.68 0.02 10.02 4.11 2.02 3.91-2.1 5.36-4.14 1.32 2.12 1.4 5.26 4.45 5.05 2.64-0.18 3.08 1.47 3.66 3.27 0.03 0.56 0.06 1.13 0.63 1.46q0.23 0.2 0.46 0.4 0.17 0.52 0.38 1.01c0.74 1.39 1.94 1.72 3.31 1.61-0.32 0.36-1.2-0.07-1.66 0.21q-0.21 0-0.42 0c-0.77 0.02-1.54 0.03-2.31 0.19-7.79 1.08-15.52 2.59-23.36 3.36-6.49 0.92-12.27 4.41-18.86 5.08-2.3 0.23-3.33 2.22-3.74 4.53-0.75 4.18 0.51 7.87 2.61 11.34 1.19 1.99 0.9 2.79-1.51 3.17-2.76 0.43-5.63 0.26-8.27 1.39-0.97 0.49-2.01 0.56-3.07 0.65q-1.14 0.09-2.25 0.25c-3.74 0.31-7.39 1.1-10.66 2.91-1.96 1.08-4.98 1.53-5.93 4.25q-0.25 0.27-0.41 0.6-0.88 0.3-1.77 0.59c-0.87 0.04-1.74-0.02-2.62-0.03-1.12-0.29-2.48 0-3.64-0.18-6.66 0.7-13.23 1.74-19.79 3.04-3.72-0.14-5.73 2.51-7.73 4.92v1.41c2 1.18 4.36 2.52 5.89 4.66 1.17 1.64 2.55 1.2 3.96 0.31 2.65 0.97 2.8-1.99 4.34-2.77 2.05-1.15 2.77-0.24 2.73 2.31 0.27-2.55 2.39-1.66 3.28-2.65q0.34-0.11 0.2-0.44c1.88-3.2 3-3.26 5.34-0.92 0.68 0.68 1.71 2.59 2.74 1.68 1.29-1.14 4.5 0.4 4.17-3.04-0.08-0.82 0.96-2.74 2.26-1.4 1.16 1.2 2.08 0.53 3.02 0.24q0.23 0.31 0.46 0.61c1.95 2.43 4 4.71 7.5 4.62q0.02-0.04 0.03-0.09 0.96 0.92 1.92 1.84c1.64 1.19 3.03 2.73 4.97 3.49 0.21 0.21 0.41 0.41 0.65 0.54q0.34 0.51 0.94 0.93c2.51 1.06 4.24-0.66 6.05-1.84 1.97-1.29 4.27-2.46 6.22-1.11 4.97 3.44 10.24 2.4 15.6 1.98 5.36-0.42 10.74-1.15 16.03-1.32 5.96-0.2 12.08-0.48 17.69-1.61 9.2-1.86 18.42-0.6 27.51-2.01 6.35 0.03 12.67-0.48 19-0.87-1.9 0.3-3.81 0.63-5.75 0.41-14.79 1.44-29.48 3.76-44.27 5.21-7.23 0.71-14.4 2.07-21.62 2.74-18.69 1.73-37.24 4.48-55.79 7.25-1.54 0.23-2.97 0.66-4.13 1.78q-1.03 1.34-2.4 2.25c-1.34 0.71-2.71 1.32-4.43 0.02-0.71-0.54-1.41 0.45-1.6 1.33-0.27 1.25-0.51 2.5-0.11 3.67q-0.07 0.91 0.09 1.8c1.77 6.25 6.36 10.19 11.39 13.73 1.36 0.95 2.99 1.34 4.69 1.11 7.41-0.99 14.89-1.38 22.25-2.83 1.96-0.69 4.04-0.47 6.3-0.94-0.7 0.22-1.16 0.24-1.6 0.35-6.6 1.56-13.31 2.59-19.93 4.06-1.99 0.45-4.29 0.51-5.3 2.86-0.14 0.59-0.08 1.07 0.09 1.49-0.35 1.05-0.13 2.16 0.25 3.13 0.39 0.98-0.03 1.4-0.51 1.76q-0.37 0-0.73 0.06-1 0.25-1.73 0.99-0.15 0.17-0.31 0.37c-0.99 0.33-1.45 1.4-1.07 1.87 1.49 1.83 0.45 3.86 0.91 5.72 0.19 0.77 0.56 1.31 1.08 1.75q0.02 0.62 0.09 1.23c1.21 1.75 2.96 2.73 4.97 3.08 7.73 1.35 15.41 0.46 22.96-1.16 3.2-0.69 6.47-1.38 9.64-1.57 4.35-0.26 5.9 3.63 7.01 7.07 0.81 2.53 2.28 4.54 4.65 4.74 5.71 0.48 11.78 3 16.94-1.91 0.7-0.66 1.77-0.52 2.7-0.68q0.73 0.13 1.35 0.22c1.23 1.01 3.04 0.93 4.47 1.48 2.29 0.87 3.79-0.47 3.97-2.47h0.34c0.01 0 0.01-0.09 0.02-0.09 0.64 0.02 1.34-0.25 2.04-0.49q1.33-0.29 2.19-0.54c1.05-0.02 1.96 0.55 2.47 2.71 0.04 0.17 1.47 0.31 1.97 0 1.85-1.14 2.59-2.67 1.17-4.68q0.21-0.14 0.44-0.3 0.25-0.19 0.52-0.4c1.52-0.08 2.83-0.15 4.14-0.22-0.01-0.6-0.17-1.21-0.07-1.8q0.16-0.02 0.32-0.03c3.59-1.41 6.63-0.82 8.98 2.4 0.34 0.47 1.04 0.66 1.33 1.13 1.76 2.77 4.11 2.55 6.68 1.44q0.08-0.1 0.17-0.19c1.88 0.25 3.85 0.24 4.42 2.87 0.22 1.01 1.45 1.49 2.61 1.37 2.76-0.3 2.57 1.24 1.8 2.99-1.03 2.38-1.99 4.75-1.29 7.43q0.24 0.16 0.54 0.14c3.96 3.07 8.65 3.07 13.27 3.4 0.44 0.45 1.12 0.82 1.5 1.3 3.28 2.75 7 4.73 11.24 5.32 8.32 1.16 16.71 1.43 25.1 1.51 1.86 0.02 3.85-0.36 5.38 0.94 1.85 1.57 4.1 1.79 6.27 2.79h8.46c0.51 0 1.1-0.24 1.68-0.26 12.31-0.38 24.62-1.02 36.87-2.22 19.98-1.95 39.98-3.43 60.04-3.89 19.12-0.43 38.22-1.03 57.33-1.65 3.87-0.12 7.79 0.34 11.61-0.04 18.02-1.77 36.11-1.35 54.17-1.8 15.96-0.4 31.94-0.27 47.9-0.09 20.44 0.23 40.85-1.22 61.28-0.73 3.88 0.1 7.76 0.04 11.64-0.02 1.99-0.16 3.98-0.17 5.96-0.13q1.13 0.03 2.01-0.28c1.6-0.14 3.18-0.6 4.7-1.64 0.73-0.5 1.43-0.49 2.28-0.07 5.46 2.73 11.19 1.73 16.88 1.07 2.23-0.39 4.45 1.02 6.68 0.43 0.57 0.31 1.24 0.51 2.07 0.53 18.03 0.43 36.08 1.05 54.12 1.34 11.02 0.18 22.04 0.13 33.05 0.73 4.42 0.24 8.92 0.47 13.35-0.39 1.37-0.4 2.78-0.22 4.18-0.29 4.33-0.2 8.57 1.01 12.92 0.76 1.19-0.07 2.32-0.3 3.42-0.57q3.32 0.08 6.64 0.22 1.04 0.03 2.08 0.06 0.8 0.25 1.62 0.35c2.1 0.22 4.11 0.05 6.09-0.35q1.35-0.03 2.71-0.08c2.18-0.09 4.36-0.02 6.54 0.06 0.48 0.15 1.03 0.17 1.54 0.22 3.01 0.26 6.08-0.38 9.06 0.45q0.57 0.16 1.16 0.21c9.33-0.3 18.56 1.25 27.87 1.49q0.62-0.03 1.13-0.12c2.18 0.8 4.44 0.69 6.71 0.55 1.67 0.23 3.26 1.05 5.01 0.67 2.57 0.31 5.14 0.36 7.72 0.1 2.72 0.78 5.48 1.11 8.27 1.25q0 0.01 0 0.01c1.92 0.62 3.92 0.26 5.88 0.42 3.49 0.81 7.05 0.74 10.59 0.62 1.54 0.75 3.17 0.52 4.8 0.34 1.6-0.63 0.88-1.9 0.82-2.98-0.08-1.2-0.95-2.45 0.45-3.88 1.23 1.21 1.96 2.46 1.66 4.22-0.17 0.98-0.78 2.1 0.69 2.66q1.06 0.01 2.11 0.02c3.29 0.09 6.51 1.12 9.83 0.69 8.05-0.14 16.07 0.85 24.12 0.82 1.05 0.26 2.13 0.22 3.22 0.15q0.47-0.06 0.91-0.21c7.98 0.12 15.96 0.61 23.9-0.76 3.52-0.15 6.8-1.29 10.02-2.61q0.23-0.25 0.46-0.51 0.18 0.13 0.38 0.25c4.38-1.19 7.77-7.36 6.64-12.35-0.57-2.5-1.14-5.04-2.03-7.44-2.8-7.54-7.36-13.26-15.88-14.63q-0.77 0.09-1.17 0.35-0.58-0.19-1.16-0.37-0.51-0.14-0.95-0.22c-2.69-0.64-5.43-1-8.19-1.24q-0.34-0.47-0.8-0.84c-3.23-1.22-6.68-1.09-10.02-1.66-1.43-0.24-3.13-0.16-3.49-2.24-0.67-3.88 0.54-5.35 4.48-5.42 9.26-0.17 18.55 0.62 27.76-0.77 5.63-0.85 10.77-2.63 13.01-8.67 0.17-0.74 0.11-1.5-0.04-2.27 0.88-1.9 1.68-3.82 0.13-5.94q0.17-0.22 0.38-0.45c-0.3-1.7-0.14-3.5-1.02-5.09-0.37-0.45-0.58-1.1-0.86-1.66 0.02-0.7 0.23-1.39 1.14-2.05zm-812.98-79.19q-0.12-0.24-0.23-0.47 0.08-0.01 0.16-0.03 0.03 0.24 0.07 0.5zm496.89-42.92q-0.04 0.05-0.07 0.09-0.02-0.04-0.03-0.09 0.05 0 0.1 0zm225.33 196.84q-0.02-0.01-0.04-0.01 0 0 0.01 0 0.01 0 0.03 0.01zm-97.38-186.94q0.03 0.22 0.11 0.42-0.17-0.04-0.35-0.08 0.13-0.18 0.24-0.34zm10.83 179.86q0.01 0.03 0.02 0.07-0.06-0.01-0.11-0.03 0.05-0.02 0.09-0.04zm69.07 5.28q0 0 0 0 0 0 0 0-0.01-0.08-0.01-0.16 0.04 0.08 0.08 0.16-0.03 0-0.07 0zm27.36 1.67h-0.02q0.01-0.01 0.01-0.02 0.01 0.01 0.02 0.02-0.01 0-0.02 0 0 0 0 0 0 0 0.01 0z"/>
		</g>
	</g>
</svg>